<?xml version="1.0" encoding="utf-8"?>
<!-- Generator: Adobe Illustrator 26.1.0, SVG Export Plug-In . SVG Version: 6.00 Build 0)  -->
<svg version="1.1" id="Слой_1" xmlns="http://www.w3.org/2000/svg" xmlns:xlink="http://www.w3.org/1999/xlink" x="0px" y="0px"
	 viewBox="0 0 78.6 113" style="enable-background:new 0 0 78.6 113;" xml:space="preserve">
<style type="text/css">
	.st0{fill:#131313;}
	.st1{fill:#1572B6;}
	.st2{fill:#33A9DC;}
	.st3{fill:#FFFFFF;}
	.st4{fill:#EBEBEB;}
</style>
<path class="st0" d="M61.6,5.2H55l6.8,7.4V16h-14v-4.1h6.8l-6.8-7.4V1.1h13.7C61.6,1.1,61.6,5.2,61.6,5.2z M45.1,5.2h-6.5l6.8,7.4
	V16h-14v-4.1h6.8l-6.8-7.4V1.1h13.7V5.2z M28.8,5.3h-7v6.4h7V16h-12v-15h12C28.8,1.1,28.8,5.3,28.8,5.3z"/>
<path class="st1" d="M7.1,103.1L0,22.9h78.6L71.4,103L39.2,112C39.2,112,7.1,103.1,7.1,103.1z"/>
<path class="st2" d="M39.3,105.1l26-7.2l6.1-68.5H39.3C39.3,29.4,39.3,105.1,39.3,105.1z"/>
<path class="st3" d="M39.3,58.5h13l0.9-10.1H39.3v-9.8h24.7l-0.2,2.6l-2.4,27.1h-22V58.5z"/>
<path class="st4" d="M39.3,84L39.3,84l-11-2.9l-0.7-7.8h-9.9l1.4,15.4l20.1,5.6l0,0L39.3,84L39.3,84z"/>
<path class="st3" d="M51.5,67.9l-1.2,13.2l-11,3v10.2l20.2-5.6l0.1-1.7l1.7-19.1L51.5,67.9L51.5,67.9z"/>
<path class="st4" d="M39.3,38.6v9.8H15.6l-0.2-2.2l-0.4-5l-0.2-2.6C14.7,38.6,39.3,38.6,39.3,38.6z M39.3,58.5v9.8H28.5l-0.2-2.2
	l-0.4-5l-0.2-2.6H39.3z"/>
</svg>
