<svg id="Capa_1" fill="white" enable-background="new 0 0 512.001 512.001" height="512" viewBox="0 0 512.001 512.001" width="512" xmlns="http://www.w3.org/2000/svg"><g><path d="m340.364 204.122h9.086c4.143 0 7.5-3.357 7.5-7.5s-3.357-7.5-7.5-7.5h-9.086c-4.143 0-7.5 3.357-7.5 7.5s3.357 7.5 7.5 7.5z"/><path d="m378.437 204.122h9.086c4.143 0 7.5-3.357 7.5-7.5s-3.357-7.5-7.5-7.5h-9.086c-4.143 0-7.5 3.357-7.5 7.5s3.357 7.5 7.5 7.5z"/><path d="m416.511 204.122h9.086c4.143 0 7.5-3.357 7.5-7.5s-3.357-7.5-7.5-7.5h-9.086c-4.143 0-7.5 3.357-7.5 7.5s3.358 7.5 7.5 7.5z"/><path d="m428.023 410.792h-36.009c-4.143 0-7.5 3.357-7.5 7.5s3.357 7.5 7.5 7.5h35.789v23.134h-143.118v-23.134h77.343c4.143 0 7.5-3.357 7.5-7.5s-3.357-7.5-7.5-7.5h-77.562c-8.15 0-14.781 6.631-14.781 14.78v23.573c0 8.149 6.631 14.78 14.781 14.78h143.557c8.149 0 14.78-6.631 14.78-14.78v-23.573c0-8.149-6.631-14.78-14.78-14.78z"/><path d="m493.201 297.748h-8.703v-113.949c0-13.224-10.758-23.981-23.981-23.981h-32.608l-18.86-144.242c-1.279-9.783-10.278-16.708-20.062-15.422l-145.756 19.056c-4.107.537-7.001 4.302-6.464 8.409s4.303 7.005 8.409 6.464l145.757-19.057c1.024-.135 1.783.303 2.139.575.354.273.97.885 1.105 1.919l4.412 33.75-302.082 39.497-4.413-33.75c-.135-1.033.302-1.783.575-2.138.272-.354.885-.97 1.918-1.105l120.601-15.769c4.107-.537 7.001-4.302 6.464-8.409s-4.298-6.992-8.409-6.464l-120.6 15.768c-9.783 1.279-16.702 10.278-15.422 20.062l13.187 100.856h-66.426c-13.224 0-23.981 10.758-23.981 23.981v180.297c0 4.143 3.358 7.5 7.5 7.5s7.5-3.357 7.5-7.5v-180.297c0-4.952 4.029-8.981 8.981-8.981h29.473l143.298 140.736c5.506 5.408 8.539 12.638 8.539 20.355s-3.033 14.947-8.54 20.355l-143.296 140.737h-29.474c-4.952 0-8.981-4.029-8.981-8.981v-93.937c0-4.143-3.358-7.5-7.5-7.5s-7.5 3.357-7.5 7.5v93.937c0 13.224 10.758 23.981 23.981 23.981h436.534c13.224 0 23.981-10.758 23.981-23.981v-113.948h8.703c10.366 0 18.8-8.434 18.8-18.8v-38.725c0-10.366-8.433-18.799-18.799-18.799zm-92.668-231.604 3.178 24.306-302.081 39.496-3.178-24.306zm-296.959 78.675 302.082-39.496 7.125 54.495h-307.246zm365.924 343.201c0 4.952-4.029 8.981-8.981 8.981h-385.655l132.401-130.035c8.402-8.251 13.029-19.28 13.029-31.057s-4.627-22.806-13.029-31.057l-132.401-130.034h385.654c4.952 0 8.981 4.029 8.981 8.981v113.948h-24.572c-21.042 0-38.161 17.119-38.161 38.162s17.119 38.162 38.161 38.162h24.572v113.949zm27.502-132.748c0 2.096-1.704 3.8-3.8 3.8h-48.275c-12.771 0-23.161-10.391-23.161-23.162s10.39-23.162 23.161-23.162h48.275c2.096 0 3.8 1.704 3.8 3.8z"/><path d="m447.665 328.41h-4.271c-4.143 0-7.5 3.357-7.5 7.5s3.357 7.5 7.5 7.5h4.271c4.143 0 7.5-3.357 7.5-7.5s-3.357-7.5-7.5-7.5z"/></g></svg>