<?xml version="1.0" encoding="utf-8"?>
<!-- Generator: Adobe Illustrator 26.1.0, SVG Export Plug-In . SVG Version: 6.00 Build 0)  -->
<svg version="1.1" id="Слой_2_00000021837833262704023010000007033581044091502984_"
	 xmlns="http://www.w3.org/2000/svg" xmlns:xlink="http://www.w3.org/1999/xlink" x="0px" y="0px" viewBox="0 0 904 179.1"
	 style="enable-background:new 0 0 904 179.1;" xml:space="preserve">
<style type="text/css">
	.st0{fill:#303030;}
</style>
<g>
	<path class="st0" d="M319.4,149.4h-2.1c-1.6,0-3,0.1-4.2,0.2c-1.2,0.2-2.2,0.3-3,0.4v9c0,1.6,0.8,2.4,2.4,2.4h6.6
		c1.6,0,2.4-0.8,2.4-2.4v-7.5c0-0.6-0.2-1.1-0.6-1.5S320,149.4,319.4,149.4z"/>
	<path class="st0" d="M412.1,144.6h-7.2c-1.6,0-2.4,0.8-2.4,2.4v12c0,1.6,0.8,2.4,2.4,2.4h7.2c1.6,0,2.4-0.8,2.4-2.4v-12
		C414.5,145.4,413.7,144.6,412.1,144.6z"/>
	<path class="st0" d="M558.2,149.4h-2.1c-1.6,0-3,0.1-4.2,0.2c-1.2,0.2-2.2,0.3-3,0.4v9c0,1.6,0.8,2.4,2.4,2.4h6.6
		c1.6,0,2.4-0.8,2.4-2.4v-7.5c0-0.6-0.2-1.1-0.6-1.5C559.3,149.6,558.8,149.4,558.2,149.4z"/>
	<path class="st0" d="M281.9,144h-5.4c-1.6,0-2.4,0.8-2.4,2.4v3.3h10.2v-3.3C284.3,144.8,283.5,144,281.9,144z"/>
	<path class="st0" d="M520.7,144.6h-7.2c-1.6,0-2.4,0.8-2.4,2.4v12c0,1.6,0.8,2.4,2.4,2.4h7.2c1.6,0,2.4-0.8,2.4-2.4v-12
		C523.1,145.4,522.3,144.6,520.7,144.6z"/>
	<path class="st0" d="M483.2,145.2h-2.1c-2.1,0-4.5,0.4-7.2,1.2v14.4h9c1.6,0,2.4-0.8,2.4-2.4v-11.1c0-0.6-0.2-1.1-0.6-1.5
		C484.3,145.4,483.8,145.2,483.2,145.2z"/>
	<path class="st0" d="M374.6,145.2h-2.1c-2.1,0-4.5,0.4-7.2,1.2v14.4h9c1.6,0,2.4-0.8,2.4-2.4v-11.1c0-0.6-0.2-1.1-0.6-1.5
		S375.2,145.2,374.6,145.2z"/>
	<polygon class="st0" points="506.6,31 496.7,60.1 516.5,60.1 	"/>
	<path class="st0" d="M245,152.1h-12v8.4h12c2.4,0,3.6-1.2,3.6-3.6v-1.2C248.6,153.3,247.4,152.1,245,152.1z"/>
	<path class="st0" d="M664.1,60.8c-0.4,5.8-2.1,10.5-5,14.3h21.7V42.8h-15.5L664.1,60.8z"/>
	<path class="st0" d="M102.3,67c-0.8,0.8-1.2,1.9-1.2,3.1v1.2c0,1.2,0.4,2.3,1.2,3.1c0.8,0.8,1.9,1.2,3.1,1.2h3.1
		c4.4,0,9.3-0.8,14.9-2.5v-7.4h-18C104.2,65.7,103.2,66.1,102.3,67z"/>
	<path class="st0" d="M-26.6-22.9v227h956v-227C929.4-22.9-26.6-22.9-26.6-22.9z M848.2,0h16.1v3.1c0,1.2,0.4,2.3,1.2,3.1
		c0.8,0.8,1.9,1.2,3.1,1.2h3.7c1.2,0,2.3-0.4,3.1-1.2s1.2-1.9,1.2-3.1V0h16.1v3.7c0,10.7-5.4,16.1-16.1,16.1h-12.4
		c-10.7,0-16.1-5.4-16.1-16.1L848.2,0L848.2,0z M556.8,26h21.7v24.2h22.3V26h21.7v65.7h-21.7V67h-22.3v24.8h-21.7V26z M52.7,91.8
		L33.5,56.4H22.4v35.3H0V5h22.4v34.1h11.2L46,15.5c1.8-3.5,4.1-6.3,6.8-8.5c2.7-2.2,6.2-3.3,10.6-3.3c2.1,0,5.8,0.4,11.2,1.2v16.7
		h-5c-1.2,0-2.4,0.4-3.3,1.2c-1,0.8-1.7,1.6-2.2,2.5l-12,22.4l24.2,44L52.7,91.8L52.7,91.8z M145.1,91.8h-19.2l-1.2-6.2
		c-3.9,2.6-7.9,4.4-12,5.6c-4.1,1.2-7.5,1.8-10.4,1.8H98c-5.6,0-10.1-1.7-13.5-5.1c-3.4-3.4-5.1-7.9-5.1-13.5v-5.6
		c0-5.6,1.7-10.1,5.1-13.5c3.4-3.4,7.9-5.1,13.5-5.1h25.4v-5c0-1.2-0.4-2.3-1.2-3.1c-0.8-0.8-1.9-1.2-3.1-1.2
		c-5.4,0-11.3,0.2-17.8,0.7s-11.7,0.9-15.7,1.1V27.3c15.1-1.7,28.8-2.5,40.9-2.5c5.6,0,10.1,1.7,13.5,5.1c3.4,3.4,5.1,7.9,5.1,13.5
		V91.8L145.1,91.8z M222,91.8h-21.7v-49H178v49h-21.7V26H222V91.8z M256.6,166.1c-1.8,1.8-4.7,2.8-8.6,2.8h-25.8v-42h24
		c3.9,0,6.8,0.9,8.6,2.7c1.8,1.8,2.8,4.5,2.8,8.1c0,2.4-0.5,4.4-1.6,5.9c-1,1.5-2.3,2.6-3.8,3.1c3.2,0.9,5.4,3,6.6,6.5
		c0.4,1.2,0.6,2.7,0.6,4.3C259.4,161.4,258.5,164.3,256.6,166.1z M260.4,74.4c-0.3,5.6-2.2,10.1-5.6,13.5c-3.4,3.4-7.7,5.1-13,5.1
		c-3.6,0-7.7-0.4-12.4-1.2V75.6h5c3.1,0,4.8-1.7,5-5l2.5-44.6h59.5v65.7h-21.7v-49h-17.4L260.4,74.4z M294.8,157.2h-20.7v2.4
		c0,0.6,0.2,1.1,0.6,1.5s0.9,0.6,1.5,0.6c4,0,9.8-0.3,17.4-0.9v7.5c-7.7,0.8-14.7,1.2-21,1.2c-2.7,0-4.9-0.8-6.5-2.5
		c-1.6-1.6-2.5-3.8-2.5-6.5v-14.4c0-3,0.8-5.3,2.6-7.1c1.7-1.7,4-2.5,7-2.5h12c3,0,5.3,0.9,7,2.5c1.7,1.7,2.6,4.1,2.6,7.1V157.2z
		 M332,159.9c0,3-0.9,5.4-2.5,7c-1.7,1.7-4,2.6-7,2.6h-13.2c-3,0-5.4-0.8-7-2.6c-1.7-1.7-2.6-4-2.6-7v-21.3c0-2.9,1-5.3,2.9-7.3
		s4.6-3.1,7.9-3.5l20.4-2.4l0.9,8.4l-18.6,2.1c-2,0.2-3,1.2-3,3v3.6c3.9-0.8,7.3-1.2,10.2-1.2h2.7c2.7,0,4.9,0.8,6.5,2.5
		c1.6,1.6,2.5,3.8,2.5,6.5L332,159.9L332,159.9z M341,91.8h-21.7V45.3H310V28.5h31V91.8z M341,21.1h-21.7V3.7H341V21.1z M353.4,26
		h21.7v24.2h22.3V26h21.7v65.7h-21.7V67h-22.3v24.8h-21.7V26z M387.2,159.3c0,3-0.9,5.4-2.6,7.1c-1.7,1.7-4,2.5-7,2.5h-12.3v10.2
		h-10.5v-42h9.3l0.6,3c1.9-1.2,3.8-2.1,5.8-2.7c2-0.6,3.6-0.9,5-0.9h2.7c2.7,0,4.9,0.8,6.5,2.5c1.6,1.6,2.5,3.8,2.5,6.5V159.3z
		 M425,159.9c0,3-0.9,5.4-2.6,7c-1.7,1.7-4,2.6-7,2.6h-13.8c-3,0-5.4-0.8-7-2.6c-1.7-1.7-2.5-4-2.5-7v-13.8c0-3,0.8-5.3,2.5-7.1
		c1.7-1.7,4-2.5,7-2.5h13.8c3,0,5.3,0.9,7,2.5c1.7,1.7,2.6,4.1,2.6,7.1V159.9z M456.7,167c-1.6,1.6-3.8,2.5-6.5,2.5
		c-6.7,0-13.9-0.4-21.6-1.2v-7.2c7.6,0.6,13.6,0.9,18,0.9c0.6,0,1.1-0.2,1.5-0.6c0.4-0.4,0.6-0.9,0.6-1.5V159c0-0.6-0.2-1.1-0.6-1.5
		s-0.9-0.6-1.5-0.6h-13.2v-7.5h12c0.6,0,1.1-0.2,1.5-0.6c0.4-0.4,0.6-0.9,0.6-1.5v-0.6c0-0.6-0.2-1.1-0.6-1.5s-0.9-0.6-1.5-0.6
		h-16.2v-7.5H449c2.7,0,4.8,0.8,6.5,2.4c1.7,1.6,2.5,3.4,2.5,5.3c0,4-1.8,6.4-5.4,7.3c1.8,0.3,3.3,1.2,4.6,2.6s2,3.4,2,6
		S458.4,165.4,456.7,167z M494.2,5H519l32.9,86.8h-24.2l-5.6-15.5h-31l-5.6,15.5h-24.2L494.2,5z M495.8,159.3c0,3-0.9,5.4-2.6,7.1
		c-1.7,1.7-4,2.5-7,2.5h-12.3v10.2h-10.5v-42h9.3l0.6,3c1.9-1.2,3.8-2.1,5.8-2.7c2-0.6,3.6-0.9,5-0.9h2.7c2.7,0,4.9,0.8,6.5,2.5
		c1.6,1.6,2.5,3.8,2.5,6.5V159.3L495.8,159.3z M533.6,159.9c0,3-0.9,5.4-2.6,7c-1.7,1.7-4,2.6-7,2.6h-13.8c-3,0-5.4-0.8-7-2.6
		c-1.7-1.7-2.5-4-2.5-7v-13.8c0-3,0.8-5.3,2.5-7.1c1.7-1.7,4-2.5,7-2.5H524c3,0,5.3,0.9,7,2.5c1.7,1.7,2.6,4.1,2.6,7.1L533.6,159.9
		L533.6,159.9z M570.8,159.9c0,3-0.9,5.4-2.5,7c-1.7,1.7-4,2.6-7,2.6h-13.2c-3,0-5.4-0.8-7-2.6c-1.7-1.7-2.5-4-2.5-7v-21.3
		c0-2.9,1-5.3,2.9-7.3s4.6-3.1,7.9-3.5l20.4-2.4l0.9,8.4l-18.6,2.1c-2,0.2-3,1.2-3,3v3.6c3.9-0.8,7.3-1.2,10.2-1.2h2.7
		c2.7,0,4.9,0.8,6.5,2.5c1.6,1.6,2.5,3.8,2.5,6.5v9.6L570.8,159.9L570.8,159.9z M607.4,168.9h-10.5v-12h-10.8v12h-10.5v-31.8h10.5
		v11.7h10.8v-11.7h10.5V168.9z M645.2,168.9h-10.5v-17.4l-10.2,17.4h-11.1v-31.8h10.5v17.4l10.2-17.4h11.1V168.9z M672.8,168.9
		l-6.6-12h-4.5v12h-10.5v-31.8h10.5v11.7h4.8l3.3-6.6c1.2-2.6,3.1-4.3,5.6-5.2c0.9-0.3,1.8-0.5,2.6-0.5c1.4,0,2.6,0.1,3.7,0.3
		l1.5,0.3v8.1h-2.1c-1.4,0-2.4,0.6-3,1.8l-3,6l9,15.9H672.8z M711.8,106.6h-20.6L690,91.7h-38.2l-1.2,14.9H630V75h8.1
		c3.3-3.9,5.2-8.2,5.6-13l2.5-36h56.4v49h9.3L711.8,106.6L711.8,106.6z M787.4,71.9c0,6.2-1.8,11.1-5.3,14.6s-8.4,5.3-14.6,5.3
		h-25.4v21.1h-21.7V26h19.2l1.2,6.2c3.9-2.6,7.9-4.4,12-5.6c4.1-1.2,7.5-1.8,10.4-1.8h5.6c5.6,0,10.1,1.7,13.5,5.1
		c3.4,3.4,5.1,7.9,5.1,13.5V71.9z M825.9,91.8h-21.7V45.3h-9.3V28.5h31V91.8z M825.9,21.1h-21.7V3.7h21.7V21.1z M904,91.8h-21.7v-36
		l-21.1,36h-22.9V26H860v36l21.1-36H904V91.8z"/>
	<path class="st0" d="M761.4,42.8h-4.3c-4.4,0-9.3,0.8-14.9,2.5v29.8h18.6c3.3,0,5-1.7,5-5v-23c0-1.2-0.4-2.3-1.2-3.1
		C763.7,43.2,762.6,42.8,761.4,42.8z"/>
	<path class="st0" d="M246.8,140.1v-1.2c0-2.4-1.2-3.6-3.6-3.6H233v8.4h10.2C245.6,143.7,246.8,142.5,246.8,140.1z"/>
</g>
</svg>
