<?xml version="1.0" encoding="utf-8"?>
<!-- Generator: Adobe Illustrator 26.1.0, SVG Export Plug-In . SVG Version: 6.00 Build 0)  -->
<svg version="1.1" id="Слой_1" xmlns="http://www.w3.org/2000/svg" xmlns:xlink="http://www.w3.org/1999/xlink" x="0px" y="0px"
	 viewBox="0 0 78.6 113.8" style="enable-background:new 0 0 78.6 113.8;" xml:space="preserve">
<style type="text/css">
	.st0{fill:#767676;}
	.st1{fill:#888888;}
	.st2{fill:#EBEBEB;}
	.st3{fill:#FFFFFF;}
</style>
<path class="st0" d="M7.2,103.3l-7.1-80h78.4l-7.1,80l-32.1,8.9L7.2,103.3z"/>
<path class="st1" d="M39.3,105.4l25.9-7.2l6.1-68.3h-32C39.3,29.9,39.3,105.4,39.3,105.4z"/>
<path class="st2" d="M39.3,59.5h-13l-0.9-10h13.9v-9.8H14.7l0.2,2.6l2.4,27h21.9v-9.8H39.3z M39.3,85L39.3,85l-11-2.9l-0.7-7.8h-9.8
	l1.4,15.4l20.1,5.6l0,0V85z"/>
<path class="st1" d="M7.4,1.6h5v4.9H17V1.6h5v14.9h-5v-5h-4.6v5h-5C7.4,16.5,7.4,1.6,7.4,1.6z M28.5,6.5h-4.4V1.6h13.8v4.9h-4.4v10
	h-5V6.5z M40,1.6h5.2l3.2,5.2l3.2-5.2h5.2v14.9h-5V9.1l-3.4,5.3h-0.1l-3.4-5.3v7.4H40V1.6L40,1.6z M59.3,1.6h5v10h7v4.9h-12
	C59.3,16.5,59.3,1.6,59.3,1.6z"/>
<path class="st3" d="M39.2,59.5v9.8h12.1L50.2,82l-10.9,3v10.2l20.1-5.6l0.1-1.7l2.3-25.8l0.2-2.6h-2.6
	C59.4,59.5,39.2,59.5,39.2,59.5z M39.2,39.7v9.8h23.7l0.2-2.2l0.4-5l0.2-2.6H39.2z"/>
</svg>
