<?xml version="1.0" encoding="UTF-8"?><svg id="a" xmlns="http://www.w3.org/2000/svg" viewBox="0 0 231 231"><defs><style>.c,.d{fill:#dbdbdb;}.c,.d,.e,.f{stroke-miterlimit:10;}.c,.e,.f{stroke:#000;}.d{stroke:#dbdbdb;}.e{fill:#494949;}.f{fill:#fff;}</style></defs><polygon class="e" points="100.5 37.5 121.5 27.5 134.56 32.5 134.56 140.78 100.5 152.56 100.5 37.5"/><path class="e" d="M63.5,137.5l15.52,73.71c.33,1.57,1.13,3,2.31,4.07,7.06,6.43,33.81,26.73,67.87,1.95,1.47-1.07,2.52-2.62,2.96-4.38,3.66-14.7,21.23-86.12,20.34-101.35l-12-10-17.02,18.43-41.6,15.44-38.37,2.13Z"/><path class="c" d="M62.52,134.61l6.98,30.89,4-10s79.88-39.44,89-44c4-2,6.41-7.99-1-4-13,7-44,17-88,38l-10.92-10.92s-.06,0-.05,.03Z"/><path class="e" d="M59.5,108.5l-1-32s-.96-22.03,11.19-44.53c.52-.96,1.35-1.71,2.34-2.16l28.68-12.95c.5-.23,1.08-.21,1.57,.03l2.21,1.1c.62,.31,1.01,.95,1.01,1.65l-.99,111.86-31,14-11-11-3-26Z"/><path class="e" d="M130.35,10.87l2.18-1.64c.6-.45,1.4-.55,2.1-.27l27.14,11.23c.48,.2,.86,.56,1.09,1.02l9.47,18.94c.12,.23,.19,.47,.21,.73,.46,4.47,4.69,47.11-.04,71.67l-8-5.06-36,14,.99-108.94c0-.67,.32-1.29,.85-1.69Z"/><g id="b"><path class="f" d="M123.25,64.93v-22.83c0-.78-.34-1.53-.95-2.02-4.16-3.35-8.1-1.39-9.95-.06-.69,.49-1.1,1.28-1.1,2.13v22.59c0,.92,.48,1.76,1.27,2.23,1.99,1.19,6.01,2.86,9.77-.02,.62-.48,.97-1.24,.97-2.03Z"/><g><line class="d" x1="113.67" y1="42.89" x2="121" y2="42.89"/><line class="d" x1="113.67" y1="45.89" x2="121" y2="45.89"/><line class="d" x1="113.67" y1="48.89" x2="121" y2="48.89"/><line class="d" x1="113.67" y1="51.89" x2="121" y2="51.89"/><line class="d" x1="113.67" y1="54.89" x2="121" y2="54.89"/><line class="d" x1="113.67" y1="57.89" x2="121" y2="57.89"/><line class="d" x1="113.67" y1="60.89" x2="121" y2="60.89"/><line class="d" x1="113.67" y1="63.89" x2="121" y2="63.89"/></g></g></svg>