<?xml version="1.0" encoding="utf-8"?>
<!-- Generator: Adobe Illustrator 26.1.0, SVG Export Plug-In . SVG Version: 6.00 Build 0)  -->
<svg version="1.1" id="Слой_1" xmlns="http://www.w3.org/2000/svg" xmlns:xlink="http://www.w3.org/1999/xlink" x="0px" y="0px"
	 viewBox="0 0 96 96" style="enable-background:new 0 0 96 96;" xml:space="preserve">
<style type="text/css">
	.st0{fill:#CBCBCB;}
	.st1{fill:#E9E9E9;}
	.st2{fill:#FFFFFF;}
	.st3{fill:#808080;}
	.st4{fill:#979797;}
	.st5{fill:#B2B2B2;}
	.st6{fill:#D7D7D7;}
	.st7{fill:#5F5F5F;}
	.st8{fill:#848484;}
	.st9{fill:#BBBBBB;}
	.st10{fill:#7B7B7B;}
	.st11{fill:#303030;}
	.st12{fill:#303030;stroke:#000000;stroke-linecap:round;stroke-miterlimit:10;}
	.st13{fill:#5F5F5F;stroke:#5E5E5E;stroke-linecap:round;stroke-miterlimit:10;}
</style>
<path class="st0" d="M1,22.5h94l0,0v58.2c0,2.6-2.1,4.7-4.7,4.7H5.7c-2.6,0-4.7-2.1-4.7-4.7V22.5L1,22.5z"/>
<path class="st1" d="M10.2,22.5h75.6l0,0v55.1c0,2.6-2.1,4.7-4.7,4.7H14.9c-2.6,0-4.7-2.1-4.7-4.7V22.5L10.2,22.5z"/>
<path class="st2" d="M24.4,22.5h47.3l0,0v36.9c0,2.1-1.7,3.8-3.8,3.8l0,0H28.1c-2.1,0-3.8-1.7-3.8-3.8l0,0V22.5L24.4,22.5z"/>
<path class="st3" d="M95,22.5v-7.2c0-2.6-2.1-4.7-4.7-4.7H5.7c-2.6,0-4.7,2.1-4.7,4.7v7.2H95z"/>
<path class="st4" d="M85.8,22.5v-7.2c0-2.6-1.7-4.7-3.8-4.7H14c-2.1,0-3.8,2.1-3.8,4.7v7.2H85.8z"/>
<path class="st5" d="M71.6,22.5v-6.6c0-2.9-2.3-5.3-5.2-5.3c0,0,0,0,0,0H29.6c-2.9,0-5.3,2.3-5.3,5.2c0,0,0,0,0,0v6.6H71.6z"/>
<rect x="19.5" y="34.6" class="st6" width="57" height="31.3"/>
<polygon class="st7" points="73.5,65.9 57.8,50.2 42.1,65.9 "/>
<polygon class="st8" points="60.3,65.9 40.9,46.4 21.4,65.9 "/>
<circle class="st7" cx="61.9" cy="73.2" r="2.1"/>
<rect x="19.5" y="22.5" class="st9" width="57" height="5.6"/>
<rect x="19.5" y="79.7" class="st10" width="57" height="5.6"/>
<path class="st11" d="M90.3,9.7H5.7C2.5,9.7,0,12.2,0,15.3v65.3c0,3.1,2.5,5.7,5.7,5.7h84.7c3.1,0,5.7-2.5,5.7-5.7V15.3
	C96,12.2,93.5,9.7,90.3,9.7z M2,15.3c0-2,1.6-3.7,3.7-3.7c0,0,0,0,0,0h84.7c2,0,3.7,1.6,3.7,3.6c0,0,0,0,0,0v6.2H2V15.3z M20.5,23.5
	h55v3.6h-55V23.5z M20.5,84.3v-3.6h55v3.6H20.5z M94,80.7c0,2-1.6,3.7-3.7,3.7c0,0,0,0,0,0H77.5v-4.6c0-0.6-0.4-1-1-1h-57
	c-0.6,0-1,0.4-1,1v4.6H5.7c-2,0-3.7-1.6-3.7-3.6c0,0,0,0,0,0V23.5h16.5v4.6c0,0.6,0.4,1,1,1h57c0.6,0,1-0.4,1-1v-4.6H94V80.7z M0,0"
	/>
<line class="st12" x1="7.8" y1="16.6" x2="22.8" y2="16.6"/>
<line class="st12" x1="87.9" y1="16.6" x2="87.9" y2="16.6"/>
<line class="st12" x1="83.9" y1="16.6" x2="83.9" y2="16.6"/>
<line class="st12" x1="85.9" y1="16.6" x2="85.9" y2="16.6"/>
<line class="st13" x1="20.3" y1="73.3" x2="25.3" y2="73.2"/>
<line class="st13" x1="30.3" y1="73.3" x2="35.3" y2="73.2"/>
<line class="st13" x1="40.3" y1="73.3" x2="45.3" y2="73.2"/>
<line class="st13" x1="50.3" y1="73.3" x2="55.3" y2="73.2"/>
<line class="st13" x1="68.5" y1="73.3" x2="73.5" y2="73.2"/>
</svg>
