<svg height="512pt" viewBox="0 -65 512.00118 512" width="512pt" xmlns="http://www.w3.org/2000/svg" xmlns:xlink="http://www.w3.org/1999/xlink"><linearGradient id="a" gradientUnits="userSpaceOnUse" x1="243.2986513262" x2="333.5214226428" y1="161.9723097374" y2="338.5510460032"><stop offset="0" stop-color="#ffb92d"/><stop offset="1" stop-color="#f59500"/></linearGradient><linearGradient id="b"><stop offset="0" stop-color="#f8ebe1"/><stop offset="1" stop-color="#fbd1a2"/></linearGradient><linearGradient id="c" gradientUnits="userSpaceOnUse" x1="288.9261030886" x2="301.9322137752" xlink:href="#b" y1="254.5990726752" y2="279.6107853832"/><linearGradient id="d" gradientUnits="userSpaceOnUse" x1="310.519662171" x2="259.608267746" y1="288.9861117646" y2="191.030129282"><stop offset="0" stop-color="#be3f45" stop-opacity="0"/><stop offset="1" stop-color="#be3f45"/></linearGradient><linearGradient id="e" gradientTransform="matrix(.997496 -.0913569 0 1.003922 2.049167 -37.55218)" gradientUnits="userSpaceOnUse" x1="237.1205" x2="319.5298" y1="195.4094" y2="356.6962"><stop offset="0" stop-color="#8c6239"/><stop offset="1" stop-color="#42210b"/></linearGradient><linearGradient id="f" gradientUnits="userSpaceOnUse" x1="344.8872251736" x2="168.7380671316" y1="241.1400927744" y2="32.3389740356"><stop offset="0" stop-color="#42210b" stop-opacity="0"/><stop offset="1" stop-color="#42210b"/></linearGradient><linearGradient id="g" gradientTransform="matrix(1.00352 .0275075 -.0275075 1.00352 8.182324 -71.583716)" gradientUnits="userSpaceOnUse" x1="224.9918" x2="298.279" xlink:href="#b" y1="147.1889" y2="288.1259"/><path d="m499.152344 74.105469c-.390625-.707031-.785156-1.417969-1.179688-2.128907-31.585937-57.066406-105.257812-75.25-159.488281-39.011718-84.328125 56.355468-173.125 105.203125-265.898437 146.269531-54.964844 24.328125-77.152344 90.621094-48.046876 143.207031.394532.710938.789063 1.421875 1.179688 2.132813 31.585938 57.0625 105.261719 75.246093 159.488281 39.007812 84.332031-56.355469 173.128907-105.199219 265.902344-146.265625 54.960937-24.328125 77.152344-90.621094 48.042969-143.210937zm0 0" fill="url(#a)"/><path d="m509.9375 103.269531c-4.765625 28.945313-26.621094 57-61.183594 72.800781-94.746094 43.308594-185.429687 92.808594-271.550781 148.222657-52.273437 33.636719-122.222656 27.984375-157.035156-10.738281 1.304687 2.996093 2.753906 5.964843 4.371093 8.886718.394532.710938.785157 1.421875 1.179688 2.132813 4.367188 7.886719 9.542969 15.03125 15.355469 21.394531 37.515625 25.171875 95.503906 25.273438 140.421875-3.632812 86.125-55.414063 176.808594-104.914063 271.554687-148.222657 30.238281-13.824219 50.738281-37.035156 58.589844-62.007812.792969-9.535157.257813-19.242188-1.703125-28.835938zm0 0" fill="url(#c)"/><path d="m93.722656 378.210938c30 8.316406 63.359375 4.167968 91.484375-14.628907 84.328125-56.355469 173.128907-105.199219 265.902344-146.265625 54.960937-24.328125 77.152344-90.621094 48.042969-143.207031-.390625-.710937-.785156-1.421875-1.179688-2.132813-31.585937-57.0625-105.257812-75.25-159.488281-39.011718-84.328125 56.355468-173.125 105.203125-265.898437 146.269531-46.695313 20.667969-69.726563 71.625-57.753907 118.734375 3.058594 4.183594 6.484375 8.050781 10.234375 11.589844zm0 0" fill="url(#d)"/><path d="m497.820312 41.78125c-.402343-.5625-.804687-1.125-1.207031-1.6875-32.257812-45.164062-107.496093-53.609375-162.875-17.976562-86.125 55.414062-176.808593 104.917968-271.554687 148.226562-56.128906 25.660156-78.789063 83.640625-49.0625 125.265625.402344.5625.800781 1.125 1.203125 1.6875 32.257812 45.164063 107.496093 53.609375 162.878906 17.972656 86.121094-55.414062 176.804687-104.914062 271.550781-148.222656 56.128906-25.660156 78.792969-83.640625 49.066406-125.265625zm0 0" fill="url(#e)"/><path d="m506.808594 106.742188-43.433594-43.398438-1.765625-1.492188-3.539063-2.992187-3.664062-2.832031-1.835938-1.417969-1.886718-1.34375-3.789063-2.675781c-1.265625-.886719-2.589843-1.6875-3.882812-2.535156-1.304688-.828126-2.585938-1.703126-3.914063-2.492188l-4.003906-2.347656c-10.695312-6.242188-22.019531-11.367188-33.605469-15.738282-5.78125-2.242187-11.960937-4.175781-18.394531-5.175781-6.421875-.992187-13.320312-1.203125-20.273438 1.113281-3.445312 1.160157-6.886718 3.125-9.625 6.074219-2.75 2.917969-4.605468 6.789063-5.242187 10.710938-.664063 3.9375-.234375 7.84375.789063 11.382812 1.03125 3.550781 2.648437 6.785157 4.554687 9.734375 1.910156 2.964844 4.199219 5.546875 6.597656 7.976563l49.546875 49.472656c.082032.089844.167969.171875.25.261719 1.132813 2.355468 2.117188 4.738281 2.910156 7.117187.832032 2.515625 1.367188 5.019531 1.625 7.398438.269532 2.378906.140626 4.609375-.371093 6.417969-.507813 1.824218-1.324219 3.207031-2.515625 4.351562-1.191406 1.148438-2.847656 2.066406-4.910156 2.792969-4.316407 1.527343-8.570313 1.429687-13.085938.101562-4.511719-1.40625-9.179688-4.035156-13.699219-7.296875-4.539062-3.253906-8.980469-7.046875-13.390625-11.03125-8.8125-7.980468-17.539062-16.660156-26.867187-24.9375-4.65625-4.148437-9.445313-8.230468-14.425781-12.148437l-1.871094-1.472657-2.027344-1.488281-2.039062-1.480469-2.117188-1.394531c-1.390625-.953125-2.859375-1.8125-4.332031-2.667969-1.445313-.886718-2.988281-1.636718-4.503907-2.429687-12.183593-6.140625-26.570312-9.441406-41.128906-7.085937-7.230468 1.230468-14.53125 3.796874-20.976562 8.753906-3.199219 2.476562-6.195313 5.574218-8.46875 9.492187-2.273438 3.882813-3.75 8.660157-3.730469 13.570313.039063 1.195312.128906 2.480468.28125 3.601562.203125 1.058594.332031 2.121094.640625 3.175782.507812 2.113281 1.296875 4.179687 2.222656 6.128906 1.882813 3.921875 4.472656 7.171875 7.089844 9.890625l45.191406 45.132812c.1875.203125.371094.425781.5625.621094.113282.117187.226563.21875.339844.332031.347656.859375.671875 1.714844.949219 2.566406 1.515625 4.589844 1.84375 8.929688.785156 12.21875-.511719 1.667969-1.324219 3.167969-2.515625 4.597657-1.183594 1.425781-2.777344 2.761719-4.691406 3.949219-1.914063 1.1875-4.121094 2.21875-6.476563 3.117187-2.398437.855469-4.925781 1.605469-7.5625 2.207031-1.3125.300782-2.667969.550782-4.015625.808594l-2.054687.328125c-.695313.117187-1.375.222656-1.964844.261719-1.226563.113281-2.460937.292968-3.679687.265625l-1.832032.039062-1.820312-.109375c-4.855469-.277344-9.617188-1.6875-14.289063-3.828125-9.371093-4.367187-18.074219-11.933593-26.597656-20.148437-2.105469-2.027344-4.203125-4.105469-6.3125-6.210938-.273437-.273437-.542969-.546875-.816406-.820312-6.210938-6.207032-12.566407-12.640625-19.644531-18.730469-4.890626-4.207031-10.210938-8.230469-16.148438-11.640625-1.402344-.871094-3.160156-1.675781-4.78125-2.488281-.820312-.40625-1.703125-.703125-2.550781-1.054688-.863281-.328125-1.703125-.707031-2.597657-.949219-3.507812-1.171874-7.152343-1.871093-10.816406-2.269531-3.671875-.28125-7.363281-.273437-11 .207031-3.625.503907-7.199218 1.316407-10.644531 2.558594-6.847656 2.542969-13.359375 6.359375-18.519531 12.332032-2.558594 2.972656-4.808594 6.507812-6.132813 10.738281-1.339843 4.179687-1.539062 9.175781-.113281 13.664062 1.382812 4.515625 4.125 8.175781 7.0625 10.894531l67.285156 67.289063.492188.457031c.371094 2.070313.460937 4.0625.144531 5.855469-.375 2.050781-1.179687 3.890625-2.617187 5.53125-3.410157 3.910156-7.769532 7.015625-12.667969 8.800781-4.921875 1.800782-10.378907 2.25-15.882813 1.78125-2.753906-.277344-5.519531-.792968-8.265625-1.492187-2.746093-.726563-5.460937-1.664063-8.144531-2.734375-5.34375-2.203125-10.519531-5.015625-15.464844-8.242188-4.9375-3.253906-9.65625-6.902344-14.160156-10.832031-1.136719-.972656-2.25-1.972656-3.339844-3-1.109375-1.007813-2.199218-2.035156-3.273437-3.085937l-1.628907-1.5625-1.71875-1.589844-3.4375-3.175782c-.578124-.523437-1.132812-1.070312-1.726562-1.574218l-1.828125-1.464844-3.648437-2.917969c-1.179688-1.011719-2.515626-1.835937-3.78125-2.738281l-3.835938-2.65625c-5.316406-3.234375-10.707031-6.347656-16.476562-8.640625-5.390626-2.226563-6.457032-.324219-2.082032 2.171875l102.488282 102.484375c6.675781-2.910156 13.199218-6.34375 19.457031-10.375 86.121093-55.414063 176.808593-104.914063 271.550781-148.222656 29.554688-13.503907 49.824219-35.976563 58.058594-60.300781zm0 0" fill="url(#f)"/><path d="m57.335938 220.988281c5.773437 2.292969 11.164062 5.40625 16.476562 8.640625l3.835938 2.65625c1.265624.902344 2.601562 1.726563 3.785156 2.734375l3.648437 2.921875 1.824219 1.464844c.59375.503906 1.152344 1.050781 1.726562 1.574219l3.4375 3.171875 1.71875 1.59375 1.628907 1.5625c1.074219 1.046875 2.164062 2.078125 3.273437 3.085937 1.089844 1.027344 2.203125 2.027344 3.339844 3 4.503906 3.929688 9.226562 7.578125 14.160156 10.828125 4.949219 3.230469 10.121094 6.042969 15.46875 8.246094 2.679688 1.070312 5.394532 2.007812 8.140625 2.734375 2.746094.699219 5.511719 1.214844 8.269531 1.488281 5.5.46875 10.960938.023438 15.878907-1.78125 4.902343-1.78125 9.261719-4.886718 12.667969-8.796875 1.4375-1.640625 2.246093-3.484375 2.617187-5.53125.363281-2.054687.21875-4.363281-.304687-6.761719-1.082032-4.828124-3.710938-9.804687-6.765626-14.496093-3.136718-4.699219-6.839843-9.160157-10.761718-13.460938-3.929688-4.296875-8.175782-8.371093-12.597656-12.246093-8.855469-7.710938-18.441407-14.785157-28.488282-20.402344-1.105468-.589844-2.851562-1.648438-4.410156-2.609375-.789062-.496094-1.558594-1.125-2.332031-1.695313-.382813-.296875-.773438-.574218-1.148438-.894531l-1.113281-1.039063c-2.933594-2.71875-5.675781-6.378906-7.0625-10.890624-1.425781-4.488282-1.222656-9.488282.117188-13.667969 1.324218-4.226563 3.574218-7.765625 6.132812-10.738281 5.160156-5.96875 11.671875-9.785157 18.519531-12.328126 3.441407-1.242187 7.019531-2.058593 10.644531-2.5625 3.632813-.480468 7.328126-.488281 11-.203124 3.660157.398437 7.308594 1.09375 10.816407 2.265624.894531.242188 1.730469.625 2.59375.949219.851562.351563 1.734375.648438 2.554687 1.054688 1.621094.8125 3.378906 1.617187 4.78125 2.488281 5.9375 3.410156 11.257813 7.433594 16.148438 11.644531 9.800781 8.425781 18.214844 17.515625 26.773437 25.757813 8.523438 8.214844 17.230469 15.78125 26.597657 20.148437 4.671874 2.140625 9.433593 3.550781 14.289062 3.828125l1.820312.109375 1.832032-.039062c1.21875.027343 2.449218-.152344 3.679687-.265625.589844-.039063 1.269531-.144532 1.964844-.261719l2.054687-.328125c1.347657-.257812 2.699219-.507812 4.015626-.8125 2.636718-.601562 5.164062-1.347656 7.5625-2.203125 2.355468-.898437 4.5625-1.929687 6.472656-3.121094 1.914062-1.183593 3.507812-2.519531 4.695312-3.945312 1.191406-1.429688 2-2.929688 2.511719-4.597657 1.058594-3.289062.730469-7.632812-.78125-12.21875-1.488281-4.589843-4.082031-9.289062-7.121094-13.765624-2.984375-4.300782-6.496093-8.257813-10.597656-11.886719-4.085937-3.652344-8.683594-6.996094-13.648437-10.496094-2.484376-1.761719-5.058594-3.566406-7.695313-5.574219-2.632813-2.019531-5.34375-4.203125-7.984375-6.933594-2.617188-2.71875-5.207031-5.964843-7.085938-9.886718-.929687-1.949219-1.714843-4.015625-2.226562-6.132813-.308594-1.050781-.4375-2.113281-.636719-3.175781-.152343-1.117188-.242187-2.402344-.28125-3.597656-.019531-4.914063 1.457031-9.6875 3.730469-13.570313 2.273438-3.921875 5.265625-7.019531 8.46875-9.492187 6.445312-4.957032 13.746094-7.527344 20.972656-8.753906 14.558594-2.359376 28.945313.941406 41.132813 7.082031 1.511719.796875 3.058593 1.542969 4.503906 2.433593 1.472656.851563 2.9375 1.710938 4.332031 2.664063l2.113282 1.394531 2.039062 1.480469 2.03125 1.492187 1.871094 1.46875c4.980468 3.917969 9.769531 8 14.425781 12.152344 9.328125 8.273438 18.050781 16.953125 26.867187 24.933594 4.40625 3.988281 8.851563 7.78125 13.386719 11.035156 4.523438 3.257813 9.1875 5.890625 13.699219 7.296875 4.519531 1.328125 8.773438 1.425781 13.089844-.101562 2.0625-.726563 3.71875-1.644531 4.910156-2.796875 1.191406-1.140625 2.007812-2.523438 2.515625-4.347656.511719-1.808594.640625-4.039063.371094-6.417969-.261719-2.378907-.796875-4.882813-1.625-7.398438-1.675781-5.03125-4.179688-10.070312-7.21875-14.832031-6.085938-9.558594-14.023438-18.203125-22.941407-25.425781-2.226562-1.820313-4.558593-3.492188-6.921874-5.101563-1.203126-.796875-2.386719-1.511718-3.640626-2.316406-1.398437-.914062-2.835937-1.738281-4.1875-2.738281-1.363281-.976563-2.722656-1.949219-4.007812-3.054688-1.324219-1.035156-2.550781-2.226562-3.789062-3.386719-2.398438-2.429687-4.691407-5.011718-6.597657-7.976562-1.90625-2.949219-3.519531-6.183594-4.554687-9.734375-1.027344-3.539063-1.457032-7.445313-.789063-11.382813.636719-3.921874 2.492188-7.792968 5.242188-10.710937 2.734375-2.949219 6.179687-4.914063 9.625-6.074219 6.953125-2.316406 13.851562-2.105468 20.269531-1.113281 6.4375 1 12.617188 2.933594 18.398438 5.179687 11.582031 4.367188 22.90625 9.496094 33.605468 15.734376l4 2.351562c1.332032.789062 2.613282 1.660156 3.917969 2.488281 1.292969.847657 2.613281 1.648438 3.882813 2.535157l3.789062 2.675781 1.886719 1.34375 1.835937 1.417969 3.664063 2.832031 3.539062 2.988281 1.765625 1.496094 1.691406 1.582031c4.574219 4.140625 2.882813 5.921875-1.902343 2.21875l-1.761719-1.421875-1.824219-1.347656-3.644531-2.6875-3.757812-2.53125-1.875-1.261719-1.929688-1.183594-3.859375-2.359375c-1.289063-.78125-2.632813-1.476562-3.941406-2.21875-1.328125-.722656-2.621094-1.488281-3.964844-2.167968l-4.042969-2.027344c-10.816406-5.3125-22.035156-9.773438-33.527344-13.378906-5.703124-1.863282-11.339843-3.261719-17.023437-3.832032-5.621094-.597656-11.308594-.269531-15.886719 1.589844-2.277344.921875-4.210937 2.210938-5.558594 3.820312-1.351562 1.601563-2.15625 3.5-2.410156 5.609376-.546875 4.25 1.320313 9.148437 4.320313 13.324218 1.488281 2.121094 3.363281 4.046875 5.324219 5.878906 1.035156.878907 2.03125 1.785157 3.15625 2.578126 1.0625.847656 2.222656 1.59375 3.375 2.347656 1.136718.777344 2.390624 1.40625 3.574218 2.121094 1.351563.785156 2.816406 1.589843 4.195313 2.425781 2.757812 1.703125 5.472656 3.484375 8.0625 5.417969 10.421875 7.660156 19.492187 17 26.886719 27.8125 3.683593 5.414062 6.894531 11.273437 9.285156 17.761718 1.179687 3.25 2.085937 6.710938 2.597656 10.382813.507812 3.660156.550781 7.648437-.421875 11.773437-.933594 4.097656-3.070313 8.304688-6.1875 11.496094-3.089844 3.226562-6.882813 5.347656-10.523437 6.746094-3.546876 1.402344-7.492188 2.203125-11.421876 2.34375-3.9375.148437-7.839843-.378906-11.464843-1.347656-7.238281-2.019532-13.324219-5.535157-18.789063-9.242188-5.472656-3.75-10.40625-7.808594-15.144531-11.90625-9.464844-8.210938-18.261719-16.558594-27.308594-24.367188-4.519531-3.90625-9.089843-7.671874-13.761719-11.230468l-1.75-1.332032-1.683593-1.191406-1.679688-1.183594-1.726562-1.097656c-1.136719-.757812-2.320313-1.417968-3.5-2.078125-1.164063-.703125-2.382813-1.25-3.578125-1.863281-4.820313-2.359375-9.867188-3.972656-14.933594-4.910156-2.53125-.429688-5.078125-.734375-7.585938-.726563-2.507812-.023437-5 .128907-7.382812.578125-4.761719.832032-9.269531 2.621094-12.492188 5.199219-1.613281 1.261719-2.882812 2.695313-3.644531 4.085937-.773437 1.398438-1.085937 2.667969-1.085937 3.871094l.09375.960938c.105468.429687.121094.898437.269531 1.308594.199219.855468.523437 1.648437.902344 2.453124.757812 1.597657 1.996093 3.210938 3.605469 4.878907 3.261718 3.34375 8.035156 6.65625 13.023437 10.164062 5.015625 3.519531 10.34375 7.328125 15.382813 11.800781 5.054687 4.449219 9.773437 9.632813 13.726562 15.375 3.78125 5.625 7.214844 11.691407 9.507812 18.734376 1.128907 3.519531 1.96875 7.289062 2.230469 11.308593.269531 4.007813-.117187 8.316407-1.40625 12.484375-1.269531 4.167969-3.476562 8.113282-6.222656 11.34375-2.746094 3.253906-5.953125 5.8125-9.226563 7.832032-3.28125 2.027343-6.644531 3.554687-9.996093 4.808593-3.347657 1.207031-6.699219 2.140625-10.019531 2.867188-1.664063.363281-3.316407.65625-4.972657.953125l-2.46875.371094c-.8125.125-1.640625.246093-2.574219.320312-1.808593.164062-3.609374.371094-5.449218.34375-.914063.007812-1.828125.03125-2.746094.015625l-2.746094-.179687c-7.351562-.515626-14.476562-2.71875-20.84375-5.738282-6.410156-3.015625-12-6.945312-17.167968-11.042968-5.167969-4.117188-9.789063-8.554688-14.246094-12.96875-8.875-8.84375-16.964844-17.816407-25.589844-25.445313-4.296875-3.824219-8.730469-7.230469-13.320312-10.015625-1.175782-.773438-2.210938-1.21875-3.296876-1.820312-.535156-.292969-1.109374-.476563-1.660156-.726563-.5625-.222656-1.101562-.507813-1.6875-.660156-2.269531-.824219-4.636718-1.316407-7.03125-1.648438-2.410156-.222656-4.847656-.296875-7.28125-.027343-2.421875.292968-4.839844.773437-7.160156 1.550781-2.308594.800781-4.53125 1.820312-6.574219 3.054687-2.039062 1.234375-3.84375 2.726563-5.324219 4.3125-1.472656 1.585938-2.5625 3.308594-3.121093 4.894532-.558594 1.605468-.632813 2.976562-.285157 4.339843.34375 1.367188 1.253907 2.859375 2.730469 4.316407l.53125.554687c.199219.179687.433594.347656.648438.523437.449219.335938.835937.71875 1.328125 1.042969 1.035156.652344 1.859375 1.246094 3.414062 2.148438 11.074219 6.664062 20.992188 14.503906 30.292969 23.101562 9.234375 8.644531 17.839844 18.09375 24.699219 29.292969 3.324218 5.667969 6.371094 11.746094 7.699218 18.933594.625 3.582031.78125 7.484375-.105468 11.414062-.867188 3.914063-2.878906 7.746094-5.617188 10.578125-4.824218 5.09375-10.902344 9.011719-17.59375 11.121094-6.683594 2.097656-13.703125 2.378906-20.300781 1.414063-3.300781-.507813-6.515625-1.296876-9.636719-2.277344-3.109375-1.007813-6.113281-2.234375-9.03125-3.585938-5.804687-2.773437-11.230468-6.132812-16.3125-9.859375-5.070312-3.746093-9.816406-7.851562-14.285156-12.195312-1.125-1.078125-2.222656-2.183594-3.300781-3.304688-1.097657-1.105469-2.148438-2.246093-3.1875-3.402343l-1.566407-1.714844-1.542968-1.621094-3.085938-3.253906c-.519531-.539063-1.019531-1.097656-1.554687-1.617188l-1.652344-1.515625-3.3125-3.027343c-1.074219-1.050782-2.296875-1.914063-3.457031-2.863282l-3.519532-2.796875c-4.890624-3.445312-9.917968-6.785156-15.34375-9.398437-5.371093-2.707032-4.519531-4.996094 1.203126-2.632813zm0 0" fill="url(#g)"/></svg>